<svg width="135" height="24" viewBox="0 0 135 24" fill="none" xmlns="http://www.w3.org/2000/svg">
<path d="M3.76 5.3V18.5H2.16V5.3H3.76ZM24.438 5.3V18.5H22.458L16.938 9.66L15.538 7.18H15.518L15.598 9.18V18.5H14.078V5.3H16.058L21.558 14.1L22.978 16.64H22.998L22.918 14.62V5.3H24.438ZM44.0455 5.3V6.8H39.4455V18.5H37.8455V6.8H33.2455V5.3H44.0455ZM52.8358 18.5V5.3H62.0958V6.8H54.4358V11.06H60.3958V12.56H54.4358V17H62.3958V18.5H52.8358ZM76.5897 5.3C77.9364 5.3 79.0164 5.64667 79.8297 6.34C80.643 7.03333 81.0497 7.97333 81.0497 9.16C81.0497 10.3467 80.6364 11.2733 79.8097 11.94C78.9964 12.5933 77.9164 12.92 76.5697 12.92L76.4297 13.02H73.1897V18.5H71.5897V5.3H76.5897ZM76.5697 11.52C77.5164 11.52 78.2164 11.3267 78.6697 10.94C79.1364 10.54 79.3697 9.94667 79.3697 9.16C79.3697 8.37333 79.1364 7.78667 78.6697 7.4C78.2164 7 77.5164 6.8 76.5697 6.8H73.1897V11.52H76.5697ZM77.4897 11.84L81.8497 18.5H79.9497L76.1497 12.72L77.4897 11.84ZM92.4905 5.3V18.5H90.8905V5.3H92.4905ZM108.128 5.1C109.382 5.1 110.462 5.38 111.368 5.94C112.288 6.48667 112.995 7.26667 113.488 8.28C113.995 9.29333 114.248 10.5 114.248 11.9C114.248 13.3 113.995 14.5067 113.488 15.52C112.995 16.5333 112.288 17.32 111.368 17.88C110.462 18.4267 109.382 18.7 108.128 18.7C106.875 18.7 105.788 18.4267 104.868 17.88C103.962 17.32 103.255 16.5333 102.748 15.52C102.255 14.5067 102.008 13.3 102.008 11.9C102.008 10.5 102.255 9.29333 102.748 8.28C103.255 7.26667 103.962 6.48667 104.868 5.94C105.788 5.38 106.875 5.1 108.128 5.1ZM108.128 6.6C107.222 6.6 106.435 6.81333 105.768 7.24C105.102 7.65333 104.588 8.26 104.228 9.06C103.868 9.84667 103.688 10.7933 103.688 11.9C103.688 13.0067 103.868 13.96 104.228 14.76C104.588 15.5467 105.102 16.1533 105.768 16.58C106.435 16.9933 107.222 17.2 108.128 17.2C109.048 17.2 109.835 16.9933 110.488 16.58C111.155 16.1533 111.668 15.5467 112.028 14.76C112.388 13.96 112.568 13.0067 112.568 11.9C112.568 10.7933 112.388 9.84667 112.028 9.06C111.668 8.26 111.155 7.65333 110.488 7.24C109.835 6.81333 109.048 6.6 108.128 6.6ZM128.769 5.3C130.116 5.3 131.196 5.64667 132.009 6.34C132.823 7.03333 133.229 7.97333 133.229 9.16C133.229 10.3467 132.816 11.2733 131.989 11.94C131.176 12.5933 130.096 12.92 128.749 12.92L128.609 13.02H125.369V18.5H123.769V5.3H128.769ZM128.749 11.52C129.696 11.52 130.396 11.3267 130.849 10.94C131.316 10.54 131.549 9.94667 131.549 9.16C131.549 8.37333 131.316 7.78667 130.849 7.4C130.396 7 129.696 6.8 128.749 6.8H125.369V11.52H128.749ZM129.669 11.84L134.029 18.5H132.129L128.329 12.72L129.669 11.84Z" fill="black"/>
</svg>
